<?xml version="1.0" encoding="UTF-8"?>
<svg width="148px" height="32px" viewBox="0 0 148 32" version="1.1" xmlns="http://www.w3.org/2000/svg" xmlns:xlink="http://www.w3.org/1999/xlink">
    <!-- Generator: sketchtool 48.2 (47327) - http://www.bohemiancoding.com/sketch -->
    <title>5B1C45B7-A9D6-4E02-8411-3D7D73DBBBBC</title>
    <desc>Created with sketchtool.</desc>
    <defs>
        <polygon id="path-1" points="0.178768421 0.565714286 23.8834351 0.565714286 23.8834351 31.2114975 0.178768421 31.2114975"></polygon>
        <polygon id="path-3" points="0 31.2118227 147.448246 31.2118227 147.448246 0.565714286 0 0.565714286"></polygon>
    </defs>
    <g id="UI-elements" stroke="none" stroke-width="1" fill="none" fill-rule="evenodd" transform="translate(-100.000000, -113.000000)">
        <g id="Fina-logo" transform="translate(100.000000, 113.000000)">
            <g id="Page-1">
                <polygon id="Fill-1" fill="#232D53" points="52.6289298 31.2393931 61.4401228 31.2393931 61.4401228 13.5533438 52.6289298 13.5533438"></polygon>
                <polygon id="Fill-2" fill="#232D53" points="42.5298772 31.2393931 49.3067193 31.2393931 49.3067193 13.5533438 42.5298772 13.5533438"></polygon>
                <polygon id="Fill-3" fill="#232D53" points="33.8829123 31.2393931 39.1589825 31.2393931 39.1589825 13.5533438 33.8829123 13.5533438"></polygon>
                <polygon id="Fill-4" fill="#232D53" points="26.6055965 31.2393931 30.5970526 31.2393931 30.5970526 13.5533438 26.6055965 13.5533438"></polygon>
                <polygon id="Fill-5" fill="#232D53" points="20.1643509 31.2393931 23.2347018 31.2393931 23.2347018 13.5533438 20.1643509 13.5533438"></polygon>
                <polygon id="Fill-6" fill="#232D53" points="14.3949474 31.2393931 16.7616491 31.2393931 16.7616491 13.5533438 14.3949474 13.5533438"></polygon>
                <polygon id="Fill-7" fill="#232D53" points="9.23442105 31.2393931 11.0188596 31.2393931 11.0188596 13.5533438 9.23442105 13.5533438"></polygon>
                <polygon id="Fill-8" fill="#232D53" points="4.4912807 31.2393931 5.85898246 31.2393931 5.85898246 13.5533438 4.4912807 13.5533438"></polygon>
                <polygon id="Fill-9" fill="#232D53" points="0 31.2393931 1.08922807 31.2393931 1.08922807 13.5533438 0 13.5533438"></polygon>
                <g id="Group-18" transform="translate(0.000000, 0.084792)">
                    <g id="Group-12" transform="translate(64.912281, 0.000000)">
                        <mask id="mask-2" fill="white">
                            <use xlink:href="#path-1"></use>
                        </mask>
                        <g id="Clip-11"></g>
                        <path d="M0.178768421,31.2114975 L6.34608421,31.2114975 L6.34608421,18.7235172 L23.8834351,18.7235172 L23.8834351,13.3843448 L6.34608421,13.3843448 C6.59794386,7.91057143 8.7991193,5.95333005 13.9849614,5.95333005 L23.8834351,5.95333005 L23.8834351,0.565389163 L14.4880316,0.565389163 C2.46692632,0.565389163 0.178768421,5.33884729 0.178768421,17.1304138 L0.178768421,31.2114975 Z" id="Fill-10" fill="#232D53" mask="url(#mask-2)"></path>
                    </g>
                    <mask id="mask-4" fill="white">
                        <use xlink:href="#path-3"></use>
                    </mask>
                    <g id="Clip-14"></g>
                    <polygon id="Fill-13" fill="#232D53" mask="url(#mask-4)" points="92.6168421 31.2118227 98.6452456 31.2118227 98.6452456 8.69054187 92.6168421 8.69054187"></polygon>
                    <polygon id="Fill-15" fill="#232D53" mask="url(#mask-4)" points="92.6168421 6.12466995 98.6452456 6.12466995 98.6452456 0.565714286 92.6168421 0.565714286"></polygon>
                    <path d="M102.459946,31.2114975 L108.125489,31.2114975 L108.125489,13.3843448 L112.69856,13.3843448 C115.767612,13.3843448 116.43556,14.1939015 116.43556,17.3820591 L116.43556,31.2114975 L122.125121,31.2114975 L122.125121,16.9314384 C122.125121,10.5629261 118.80356,8.69021675 113.143858,8.69021675 L102.459946,8.69021675 L102.459946,31.2114975 Z" id="Fill-16" fill="#232D53" mask="url(#mask-4)"></path>
                    <path d="M136.513577,31.2114975 L147.4487,31.2114975 L147.4487,17.1011527 C147.4487,14.8955172 146.857998,12.603399 145.326068,11.0122463 C143.455946,9.05630542 141.004858,8.690867 138.551823,8.690867 L136.513577,8.690867 L126.9507,8.690867 L126.9507,13.3843448 L136.904998,13.3843448 L136.708963,13.3843448 L136.513577,13.3843448 C139.495647,13.3843448 141.703314,13.8343153 141.533893,17.5472217 L139.023735,17.5472217 L134.06184,17.5472217 C129.573156,17.5472217 125.830963,18.6077734 125.495367,24.0314778 C125.246753,28.5539409 127.703682,31.2114975 132.109928,31.2114975 L136.513577,31.2114975 L136.514226,31.2114975 L136.513577,31.2114975 Z M136.513577,26.682532 L141.618928,26.682532 L141.618928,22.0742365 L136.513577,22.0742365 L134.896612,22.0742365 C133.223174,22.0742365 131.524419,22.239399 131.439384,24.391064 C131.269963,26.5986502 132.862911,26.682532 134.47663,26.682532 L136.513577,26.682532 Z" id="Fill-17" fill="#232D53" mask="url(#mask-4)"></path>
                </g>
            </g>
        </g>
    </g>
</svg>