<svg id="visual" viewBox="0 0 1920 1080" width="1920" height="1080" xmlns="http://www.w3.org/2000/svg" xmlns:xlink="http://www.w3.org/1999/xlink" version="1.1"><rect x="0" y="0" width="1920" height="1080" fill="#000000"></rect><defs><linearGradient id="grad1_0" x1="43.8%" y1="0%" x2="100%" y2="100%"><stop offset="14.444444444444446%" stop-color="#bb0808" stop-opacity="1"></stop><stop offset="85.55555555555554%" stop-color="#bb0808" stop-opacity="1"></stop></linearGradient></defs><defs><linearGradient id="grad1_1" x1="43.8%" y1="0%" x2="100%" y2="100%"><stop offset="14.444444444444446%" stop-color="#bb0808" stop-opacity="1"></stop><stop offset="85.55555555555554%" stop-color="#7e0000" stop-opacity="1"></stop></linearGradient></defs><defs><linearGradient id="grad1_2" x1="43.8%" y1="0%" x2="100%" y2="100%"><stop offset="14.444444444444446%" stop-color="#000000" stop-opacity="1"></stop><stop offset="85.55555555555554%" stop-color="#7e0000" stop-opacity="1"></stop></linearGradient></defs><defs><linearGradient id="grad2_0" x1="0%" y1="0%" x2="56.3%" y2="100%"><stop offset="14.444444444444446%" stop-color="#bb0808" stop-opacity="1"></stop><stop offset="85.55555555555554%" stop-color="#bb0808" stop-opacity="1"></stop></linearGradient></defs><defs><linearGradient id="grad2_1" x1="0%" y1="0%" x2="56.3%" y2="100%"><stop offset="14.444444444444446%" stop-color="#7e0000" stop-opacity="1"></stop><stop offset="85.55555555555554%" stop-color="#bb0808" stop-opacity="1"></stop></linearGradient></defs><defs><linearGradient id="grad2_2" x1="0%" y1="0%" x2="56.3%" y2="100%"><stop offset="14.444444444444446%" stop-color="#7e0000" stop-opacity="1"></stop><stop offset="85.55555555555554%" stop-color="#000000" stop-opacity="1"></stop></linearGradient></defs><g transform="translate(1920, 0)"><path d="M0 756C-79.3 743.8 -158.6 731.7 -224.7 691.4C-290.7 651.1 -343.4 582.8 -377.4 519.4C-411.3 456 -426.4 397.7 -490.3 356.2C-554.1 314.7 -666.6 290.2 -719 233.6C-771.4 177.1 -763.7 88.5 -756 0L0 0Z" fill="#630000"></path><path d="M0 504C-52.9 495.9 -105.8 487.8 -149.8 460.9C-193.8 434.1 -228.9 388.5 -251.6 346.3C-274.2 304 -284.3 265.1 -326.8 237.5C-369.4 209.8 -444.4 193.4 -479.3 155.7C-514.3 118 -509.1 59 -504 0L0 0Z" fill="#9c0000"></path><path d="M0 252C-26.4 247.9 -52.9 243.9 -74.9 230.5C-96.9 217 -114.5 194.3 -125.8 173.1C-137.1 152 -142.1 132.6 -163.4 118.7C-184.7 104.9 -222.2 96.7 -239.7 77.9C-257.1 59 -254.6 29.5 -252 0L0 0Z" fill="#bb0808"></path></g><g transform="translate(0, 1080)"><path d="M0 -756C62 -697.7 123.9 -639.5 203.3 -625.8C282.8 -612.1 379.7 -643.1 444.4 -611.6C509.1 -580.2 541.5 -486.3 561.5 -407.9C581.4 -329.5 588.8 -266.6 619.1 -201.2C649.5 -135.8 702.7 -67.9 756 0L0 0Z" fill="#630000"></path><path d="M0 -504C41.3 -465.2 82.6 -426.3 135.6 -417.2C188.5 -408.1 253.1 -428.7 296.2 -407.7C339.4 -386.8 361 -324.2 374.3 -271.9C387.6 -219.7 392.5 -177.7 412.8 -134.1C433 -90.5 468.5 -45.3 504 0L0 0Z" fill="#9c0000"></path><path d="M0 -252C20.7 -232.6 41.3 -213.2 67.8 -208.6C94.3 -204 126.6 -214.4 148.1 -203.9C169.7 -193.4 180.5 -162.1 187.2 -136C193.8 -109.8 196.3 -88.9 206.4 -67.1C216.5 -45.3 234.2 -22.6 252 0L0 0Z" fill="#bb0808"></path></g></svg>